<?xml version="1.0" encoding="utf-8"?>
<!-- Generator: Adobe Illustrator 21.1.0, SVG Export Plug-In . SVG Version: 6.00 Build 0)  -->
<svg version="1.1" id="Capa_1" xmlns="http://www.w3.org/2000/svg" xmlns:xlink="http://www.w3.org/1999/xlink" x="0px" y="0px"
	 viewBox="0 0 99 99" style="enable-background:new 0 0 99 99;" xml:space="preserve">
<style type="text/css">
	.st0{fill:#FFFFFF;}
</style>
<rect x="3.1" y="3.1" class="st0" width="64.9" height="64.9"/>
<path d="M64.9,6.2v58.7H6.2V6.2H64.9 M71,0H0v71h71V0L71,0z"/>
<rect x="17.1" y="17.1" class="st0" width="64.9" height="64.9"/>
<path d="M78.8,20.2v58.7H20.2V20.2L78.8,20.2 M85,14H14v71h71L85,14C85,14,85,14,85,14z"/>
<rect x="31" y="31.1" class="st0" width="64.9" height="64.9"/>
<path d="M92.8,34.2v58.7H34.1V34.2H92.8 M99,28H28v71h71V28L99,28z"/>
</svg>
